<svg width="9" height="8" viewBox="0 0 9 8" fill="none" xmlns="http://www.w3.org/2000/svg">
<path d="M7.20231 0.874911C6.04934 -0.291637 4.19557 -0.291637 3.04262 0.874911C2.0253 1.90422 1.91226 3.48248 2.6809 4.62616L0.307164 7.02787C0.0810938 7.25662 0.0810938 7.59971 0.307164 7.82846C0.533234 8.05718 0.894946 8.05718 1.09841 7.82846L3.47215 5.42675C4.6025 6.20443 6.185 6.09006 7.1797 5.06075C8.35526 3.9171 8.35526 2.04146 7.20231 0.874911ZM3.38172 4.74054C2.43222 3.77984 2.43222 2.20158 3.38172 1.21801C4.33122 0.234454 5.8911 0.257328 6.86319 1.21801C7.81269 2.1787 7.81269 3.75696 6.86319 4.74054C5.91372 5.72408 4.35381 5.70123 3.38172 4.74054Z" fill="white"/>
</svg>
